<svg xmlns="http://www.w3.org/2000/svg" viewBox="0 0 225 225" fill-rule="evenodd" stroke-linejoin="round" stroke-miterlimit="2" xmlns:v="https://vecta.io/nano"><g transform="matrix(.953041 0 0 .898422 8.04752 9.75751)"><clipPath id="A"><path d="M-8.444-10.861h235.53v249.716H-8.444z"/></clipPath><g clip-path="url(#A)" fill="#32bcad" fill-rule="nonzero"><path d="M174.965 180.792c-9.16 0-17.775-3.784-24.259-10.654l-35.025-37.158c-2.466-2.616-6.747-2.608-9.202 0l-35.161 37.294c-6.474 6.87-15.099 10.654-24.259 10.654h-6.904l44.363 47.059c13.861 14.697 36.326 14.697 50.176 0l44.489-47.195h-4.218zM47.038 49.358c9.171 0 17.785 3.784 24.259 10.654l35.161 37.3c2.529 2.687 6.663 2.697 9.202-.002l35.025-37.162c6.484-6.87 15.099-10.654 24.27-10.654h4.218l-44.5-47.195c-13.85-14.697-36.315-14.697-50.166 0L40.144 49.358h6.894z"/><path d="M215.981 88.532l-26.882-28.52c-.598.252-1.238.408-1.91.408h-12.224c-6.317 0-12.507 2.719-16.977 7.46l-35.025 37.158c-3.274 3.477-7.586 5.217-11.888 5.217s-8.615-1.74-11.888-5.214L64.026 67.746c-4.459-4.742-10.65-7.46-16.967-7.46H32.023c-.64 0-1.238-.16-1.805-.386L3.231 88.533c-13.861 14.697-13.861 38.526 0 53.223l26.987 28.632c.567-.226 1.165-.386 1.805-.386h15.036c6.317 0 12.507-2.718 16.967-7.459l35.161-37.294c6.359-6.735 17.428-6.737 23.776.003l35.025 37.155c4.47 4.741 10.661 7.46 16.977 7.46h12.224c.672 0 1.312.157 1.91.408l26.882-28.52c13.861-14.698 13.861-38.527 0-53.224"/></g></g></svg>