<?xml version="1.0" encoding="UTF-8"?>
<svg width="237.77mm" height="84.263mm" version="1.1" viewBox="0 0 237.77 84.263" xmlns="http://www.w3.org/2000/svg">
<g transform="translate(-535.59 -20.809)">
<path d="m633.42 99.489v-48.324c0-8.8918 7.208-16.1 16.099-16.1l14.268 0.0215c8.8657 0.0176 16.044 7.2097 16.044 16.076v10.286c0 8.8918-7.2083 16.1-16.1 16.1h-20.162" fill="none" stroke="#939598" stroke-linecap="round" stroke-linejoin="round" stroke-miterlimit="10" stroke-width="2.9764"/>
<path d="m683.82 35.059h6.1891c3.6491 0 6.6068 2.958 6.6068 6.6072v36.098" fill="none" stroke="#939598" stroke-linecap="round" stroke-linejoin="round" stroke-miterlimit="10" stroke-width="2.9764"/>
<path d="m695.29 29.466-2.8067-2.8071c-0.69674-0.69638-0.69674-1.8256 0-2.522l2.8049-2.8053c0.69779-0.69744 1.8284-0.69744 2.5255 0l2.8049 2.8053c0.69673 0.69638 0.69673 1.8256 0 2.522l-2.8067 2.8071c-0.69638 0.69638-1.8253 0.69638-2.522 0" fill="#32bcad"/>
<path d="m708.49 35.027h6.138c3.1577 0 6.186 1.2545 8.4183 3.4869l14.357 14.357c1.8595 1.8598 4.8747 1.8598 6.7345 0l14.304-14.304c2.2327-2.2324 5.2606-3.4869 8.4183-3.4869h4.9904" fill="none" stroke="#939598" stroke-linecap="round" stroke-linejoin="round" stroke-miterlimit="10" stroke-width="2.9764"/>
<path d="m708.49 77.448h6.138c3.1577 0 6.186-1.2545 8.4183-3.4869l14.357-14.357c1.8595-1.8598 4.8747-1.8598 6.7345 0l14.304 14.304c2.2327 2.2324 5.2606 3.4869 8.4183 3.4869h4.9904" fill="none" stroke="#939598" stroke-linecap="round" stroke-linejoin="round" stroke-miterlimit="10" stroke-width="2.9764"/>
<path d="m596.83 86.62c-3.0804 0-5.9778-1.1994-8.1562-3.3768l-11.777-11.777c-0.82691-0.82903-2.268-0.82656-3.0946 0l-11.82 11.82c-2.1784 2.1773-5.0758 3.3768-8.1562 3.3768h-2.3209l14.916 14.915c4.6581 4.6581 12.211 4.6581 16.869 0l14.958-14.958z" fill="#32bcad"/>
<path d="m553.82 44.963c3.0805 0 5.9778 1.1994 8.1562 3.3768l11.82 11.822c0.85125 0.85161 2.2412 0.85479 3.0946-1e-3l11.777-11.778c2.1784-2.1774 5.0758-3.3768 8.1562-3.3768h1.4185l-14.958-14.958c-4.6588-4.6584-12.211-4.6584-16.869 0l-14.915 14.915z" fill="#32bcad"/>
<path d="m610.62 57.379-9.0392-9.0392c-0.19897 0.0797-0.41452 0.12946-0.64206 0.12946h-4.1099c-2.1248 0-4.2048 0.86184-5.7062 2.3643l-11.776 11.777c-1.1021 1.1021-2.5502 1.6535-3.997 1.6535-1.4482 0-2.8952-0.55139-3.997-1.6524l-11.821-11.821c-1.5014-1.5028-3.5814-2.3643-5.7062-2.3643h-5.0535c-0.21555 0-0.41698-0.0508-0.60713-0.12242l-9.0752 9.0752c-4.6584 4.6584-4.6584 12.211 0 16.869l9.0749 9.0748c0.1905-0.0716 0.39193-0.12241 0.60748-0.12241h5.0535c2.1248 0 4.2048-0.86148 5.7062-2.364l11.82-11.82c2.1364-2.1347 5.8607-2.1354 7.995 1e-3l11.776 11.776c1.5014 1.5025 3.5814 2.3643 5.7062 2.3643h4.1099c0.22754 0 0.44309 0.0497 0.64206 0.12947l9.0392-9.0392c4.6581-4.6584 4.6581-12.211 0-16.869" fill="#32bcad"/>
</g>
</svg>
